<svg width="165" height="79" viewBox="0 0 165 79" fill="none" xmlns="http://www.w3.org/2000/svg">
<path d="M6.12164 4.86597L2.67607 24.3881H0L4.51659 1.03772C4.56841 0.753737 4.71999 0.497461 4.94415 0.314854C5.16831 0.132247 5.45037 0.0352555 5.73975 0.0412803C5.97867 0.0370914 6.21327 0.105156 6.41265 0.23651C6.61202 0.367865 6.76683 0.556353 6.8567 0.777155L14.1498 18.5555L21.6842 0.802924C21.7772 0.586259 21.9328 0.402162 22.1313 0.274148C22.3297 0.146133 22.5619 0.080012 22.7982 0.0842305C23.0917 0.0771719 23.3779 0.176631 23.6034 0.36412C23.8289 0.551609 23.9785 0.814376 24.0243 1.10357L28.0441 24.3795H25.3968L22.3245 4.85165L14.101 24.1647L6.12164 4.86597Z" fill="#524436"/>
<path d="M52.8726 24.3887L50.0731 17.9262H37.7092L34.7374 24.3887H32.0039L42.9149 0.75202C43.0143 0.537354 43.1737 0.355784 43.3738 0.229011C43.574 0.102238 43.8065 0.0356245 44.0436 0.0371345C44.2808 0.0386444 44.5124 0.108212 44.7109 0.237524C44.9095 0.366836 45.0665 0.550423 45.1631 0.766337L55.6808 24.3887H52.8726ZM38.7228 15.5983H49.0595L44.0117 3.79286L38.7228 15.5983Z" fill="#524436"/>
<path d="M62.7408 24.4356C61.9204 24.4348 61.1339 24.1093 60.554 23.5305C59.9742 22.9517 59.6484 22.167 59.6484 21.3489V0.337891H64.5297C67.1139 0.337891 69.1841 0.592725 70.6542 1.09094C72.2514 1.59162 73.7167 2.44061 74.9439 3.5763C77.5655 5.96144 78.8375 8.40385 78.8375 12.3037C78.8375 16.2035 77.5109 18.8349 74.7803 21.2372C73.5497 22.3563 72.097 23.205 70.5164 23.7283C69.1123 24.1979 67.0708 24.4356 64.4608 24.4356H62.7408ZM62.224 22.1077H64.7651C66.3628 22.1442 67.9569 21.9416 69.4942 21.5064C70.7967 21.0677 71.9935 20.3637 73.0087 19.4391C75.1392 17.5006 76.2188 15.3989 76.2188 12.3037C76.2188 9.20845 75.1536 7.23562 73.0604 5.28857C71.1653 3.54767 68.3772 2.66577 64.7737 2.66577H62.2326L62.224 22.1077Z" fill="#524436"/>
<path d="M84.5293 24.3897V1.28849C84.5293 1.11929 84.5627 0.951735 84.6276 0.795407C84.6926 0.63908 84.7878 0.497037 84.9077 0.37739C85.0277 0.257742 85.1702 0.162832 85.3269 0.0980792C85.4837 0.0333263 85.6517 0 85.8214 0C85.9911 0 86.1591 0.0333263 86.3159 0.0980792C86.4726 0.162832 86.6151 0.257742 86.7351 0.37739C86.855 0.497037 86.9502 0.63908 87.0152 0.795407C87.0801 0.951735 87.1135 1.11929 87.1135 1.28849V24.3897H84.5293Z" fill="#524436"/>
<path d="M100.611 24.6866C98.4635 24.6866 96.7465 24.1139 95.3625 22.9285C94.4313 22.1032 93.7266 21.0546 93.3153 19.882C93.2524 19.711 93.2286 19.5283 93.2455 19.347C93.2624 19.1657 93.3196 18.9905 93.4129 18.834C93.5059 18.6789 93.6307 18.5452 93.7791 18.4416C93.9276 18.3379 94.0963 18.2668 94.2743 18.2327C94.6015 18.1643 94.9425 18.2193 95.2315 18.3869C95.5205 18.5545 95.7369 18.8229 95.8391 19.1404C95.9839 19.6739 96.2305 20.1746 96.5656 20.615C97.5217 21.8634 98.9402 22.5048 100.769 22.5048C101.438 22.5241 102.105 22.4114 102.73 22.1731C103.355 21.9348 103.927 21.5755 104.413 21.1161C105.063 20.4694 105.52 19.6548 105.732 18.7636C105.944 17.8724 105.903 16.94 105.613 16.0709C105.436 15.5737 105.161 15.1164 104.806 14.7251C104.414 14.2997 103.962 13.9324 103.465 13.6342C102.879 13.2823 102.264 12.9788 101.628 12.7265L99.0435 11.7129C95.6611 10.3672 94.013 8.48882 94.013 5.96911C94.013 4.27402 94.6849 2.8939 96.066 1.75144C97.4471 0.608976 99.1871 0.00195312 101.306 0.00195312C103.913 0.00195312 105.946 1.08715 107.505 3.31481L105.495 4.44009C105.084 3.78653 104.528 3.23521 103.87 2.82805C102.948 2.35902 101.915 2.15257 100.883 2.23137C99.8509 2.31017 98.8608 2.67119 98.0213 3.27472C97.5953 3.59063 97.2502 4.0025 97.0142 4.47672C96.7782 4.95093 96.6579 5.47408 96.6632 6.00347C96.6632 7.52675 97.7916 8.73221 100.017 9.59406L102.679 10.6191C104.72 11.3951 106.219 12.3371 107.138 13.428C108.054 14.5332 108.532 15.935 108.482 17.368C108.482 19.5069 107.752 21.2191 106.248 22.605C104.743 23.9908 102.877 24.6866 100.611 24.6866Z" fill="#524436"/>
<path d="M124.856 24.869C121.767 24.869 118.947 23.7838 116.481 21.6449C113.744 19.2598 112.412 16.2046 112.412 12.3277C112.412 8.92606 113.63 6.08565 116.145 3.64038C117.31 2.46727 118.701 1.54041 120.234 0.915136C121.767 0.289862 123.41 -0.021003 125.066 0.00110123C128.375 0.0243613 131.541 1.34578 133.88 3.67945C136.219 6.01312 137.543 9.17137 137.565 12.4708C137.59 14.1087 137.273 15.7339 136.636 17.2436C135.998 18.7532 135.053 20.1145 133.861 21.2412C132.679 22.4146 131.273 23.34 129.726 23.9631C128.18 24.5862 126.524 24.8942 124.856 24.869ZM125.006 2.21445C123.67 2.19143 122.344 2.44206 121.109 2.95083C119.874 3.45959 118.757 4.21567 117.827 5.17225C116.875 6.1125 116.124 7.23641 115.621 8.47547C115.118 9.71453 114.873 11.0428 114.902 12.3792C114.902 15.3571 115.924 17.8453 117.939 19.7752C119.955 21.705 122.284 22.6729 124.911 22.6729C126.255 22.6982 127.589 22.4488 128.833 21.9401C130.076 21.4314 131.202 20.6742 132.141 19.715C133.097 18.7626 133.851 17.6276 134.357 16.378C134.863 15.1283 135.111 13.7897 135.087 12.4422C135.087 9.5789 134.108 7.12217 132.175 5.17225C131.25 4.21176 130.135 3.453 128.901 2.94389C127.667 2.43479 126.341 2.18641 125.006 2.21445Z" fill="#524436"/>
<path d="M142.381 24.3888V1.57102C142.38 1.40764 142.412 1.24574 142.475 1.09476C142.537 0.943772 142.629 0.806724 142.745 0.691596C142.862 0.576468 143 0.485562 143.152 0.42418C143.303 0.362798 143.466 0.332166 143.63 0.334068C143.795 0.334365 143.959 0.368874 144.11 0.435411C144.261 0.501948 144.397 0.599064 144.509 0.720615L161.84 19.7874V0.377018H164.424V23.1518C164.425 23.3152 164.393 23.4771 164.33 23.6281C164.268 23.7791 164.176 23.9161 164.059 24.0313C163.943 24.1464 163.805 24.2373 163.653 24.2987C163.501 24.3601 163.339 24.3907 163.175 24.3888C163.01 24.3885 162.847 24.3543 162.695 24.2883C162.544 24.2223 162.408 24.1259 162.296 24.0051L144.968 4.98982V24.3888H142.381Z" fill="#524436"/>
<path d="M70.1669 78.9199C67.0774 78.9199 64.2578 77.8347 61.7913 75.6958C59.055 73.3078 57.7227 70.2555 57.7227 66.3785C57.7227 62.9769 58.9401 60.1365 61.4554 57.6912C62.6206 56.5176 64.0112 55.5904 65.5441 54.9651C67.0769 54.3398 68.7205 54.0292 70.3765 54.0519C73.6874 54.0722 76.8568 55.3934 79.1971 57.7289C81.5375 60.0643 82.8602 63.2258 82.8782 66.5274C82.9029 68.1649 82.5865 69.7896 81.9489 71.2988C81.3113 72.808 80.3665 74.1687 79.1742 75.2949C77.9922 76.469 76.586 77.3948 75.0389 78.0174C73.4917 78.6401 71.8351 78.9469 70.1669 78.9199ZM70.3134 56.2653C68.9776 56.2423 67.6513 56.4929 66.4165 57.0017C65.1818 57.5104 64.065 58.2665 63.1351 59.2231C62.1795 60.1614 61.4258 61.2842 60.9203 62.5229C60.4147 63.7616 60.1679 65.0901 60.1949 66.4272C60.1949 69.4079 61.217 71.8961 63.2327 73.826C65.2484 75.7559 67.577 76.7208 70.2043 76.7208C71.5478 76.7464 72.8824 76.4974 74.1258 75.9892C75.3692 75.481 76.4951 74.7244 77.4342 73.7659C78.3897 72.8129 79.1429 71.6778 79.649 70.4283C80.1551 69.1788 80.4038 67.8404 80.3802 66.4931C80.3802 63.6297 79.3982 61.173 77.4687 59.2231C76.5439 58.2671 75.4309 57.5122 74.1995 57.0056C72.9682 56.4991 71.6451 56.2519 70.3134 56.2796V56.2653Z" fill="#524436"/>
<path d="M124.326 78.2942V55.4764C124.325 55.3131 124.357 55.1514 124.42 55.0006C124.483 54.8497 124.575 54.7129 124.691 54.598C124.807 54.4831 124.945 54.3924 125.097 54.3314C125.249 54.2703 125.412 54.24 125.575 54.2423C125.74 54.2421 125.904 54.276 126.055 54.3421C126.206 54.4081 126.342 54.5048 126.454 54.626L143.782 73.6957V54.2767H146.366V77.0515C146.367 77.2147 146.335 77.3765 146.273 77.5273C146.21 77.6782 146.118 77.815 146.002 77.9299C145.885 78.0448 145.747 78.1355 145.595 78.1965C145.444 78.2576 145.281 78.2879 145.117 78.2856C144.955 78.2838 144.795 78.2492 144.647 78.1837C144.499 78.1182 144.366 78.0233 144.256 77.9048L126.925 58.8866V78.2856L124.326 78.2942Z" fill="#524436"/>
<path d="M18.0527 78.3087V54.2768H21.3375C22.7093 54.2433 24.0804 54.3682 25.4234 54.649C26.3089 54.8501 27.1349 55.2551 27.8353 55.8316C28.5202 56.4322 29.0651 57.1749 29.4317 58.0077C29.8293 58.849 30.0389 59.7664 30.0462 60.6964C30.0544 61.4847 29.8826 62.2646 29.5438 62.977C29.205 63.6894 28.7082 64.3155 28.0908 64.8081L27.1749 65.5984L28.3407 65.9763C29.5484 66.3431 30.5991 67.1008 31.3268 68.1296C32.0777 69.1762 32.4703 70.4363 32.4466 71.723C32.4633 72.579 32.2938 73.4285 31.9498 74.2129C31.6058 74.9973 31.0955 75.6981 30.4539 76.2671C29.6938 77.0046 28.7687 77.5513 27.7549 77.862C26.3413 78.1875 24.8927 78.3375 23.4422 78.3087H18.0527ZM20.6369 76.0839H23.8442C25.8541 76.0839 27.3213 75.6973 28.3177 74.9042C28.8258 74.5117 29.2356 74.0068 29.5146 73.4294C29.7936 72.852 29.9343 72.2179 29.9256 71.577C29.9309 70.9524 29.7959 70.3346 29.5306 69.7688C29.2653 69.203 28.8763 68.7035 28.3923 68.3071C27.4046 67.4481 25.7708 67.0243 23.3934 67.0243H20.6312L20.6369 76.0839ZM20.6369 65.2032H22.621C24.3065 65.2032 25.5813 64.8196 26.414 64.0579C27.2467 63.2963 27.6831 62.1882 27.6831 60.768C27.6831 59.3478 27.2438 58.2855 26.3767 57.5324C25.5095 56.7793 24.3179 56.4243 22.7789 56.4243H20.6369V65.2032Z" fill="#524436"/>
<path d="M51.124 78.662C50.9217 78.6618 50.7224 78.613 50.543 78.5198C50.3636 78.4266 50.2093 78.2918 50.0931 78.1266L43.4288 68.6175H41.5998V78.2927H39.0156V54.3496H43.0068C46.3403 54.3496 48.7494 54.9595 50.185 56.1592C51.7556 57.4964 52.5194 59.223 52.5194 61.4334C52.5649 63.0286 52.0454 64.5888 51.0522 65.8401C50.0875 67.06 48.7145 67.8924 47.1845 68.1851L46.0934 68.4199L52.1547 76.672C52.2907 76.8591 52.3721 77.0799 52.3902 77.3102C52.4082 77.5405 52.3621 77.7713 52.257 77.9771C52.1519 78.1829 51.9918 78.3558 51.7944 78.4767C51.597 78.5975 51.3699 78.6617 51.1383 78.662H51.124ZM41.5998 66.5674H43.6097C48.936 66.5674 50.053 63.8014 50.053 61.485C50.053 59.2917 48.9619 56.6775 43.7648 56.6775H41.6056L41.5998 66.5674Z" fill="#524436"/>
<path d="M85.4935 52.5926H95.0808C94.472 51.9178 94.0126 51.1227 93.7325 50.259C93.4525 49.3953 93.358 48.4825 93.4552 47.58C93.5525 46.6775 93.8393 45.8056 94.297 45.021C94.7546 44.2364 95.3729 43.5567 96.1116 43.0263C95.4336 40.7867 95.3772 38.4057 95.9486 36.1367C96.5199 33.8678 97.6976 31.7958 99.3562 30.1413C97.6385 29.0569 95.6465 28.4829 93.6135 28.4863C91.4199 28.4866 89.2778 29.1504 87.4704 30.3901C85.663 31.6299 84.2752 33.3872 83.4904 35.4299C82.7055 37.4727 82.5605 39.7048 83.0745 41.8315C83.5885 43.9582 84.7373 45.8794 86.3692 47.3413C86.5734 47.5364 86.6935 47.8031 86.7039 48.0849C86.7143 48.3667 86.6143 48.6415 86.4251 48.8511C86.2358 49.0607 85.9722 49.1885 85.69 49.2076C85.4079 49.2267 85.1293 49.1355 84.9135 48.9533C83.8205 47.9694 82.903 46.8076 82.2001 45.5173C81.6631 46.1433 81.318 46.9101 81.2059 47.7262C81.0938 48.5423 81.2193 49.3734 81.5677 50.1203C81.916 50.8672 82.4724 51.4985 83.1705 51.9389C83.8686 52.3793 84.6789 52.6102 85.505 52.6041L85.4935 52.5926Z" fill="#EFDFB4"/>
<path d="M119.447 44.2378C119.18 44.1369 118.963 43.9346 118.844 43.6751C118.725 43.4156 118.714 43.1198 118.813 42.852L118.864 42.7088C119.456 40.9356 119.576 39.0397 119.214 37.2062C118.852 35.3726 118.019 33.664 116.797 32.2471C115.576 30.8301 114.006 29.7531 112.243 29.1212C110.479 28.4893 108.581 28.3241 106.735 28.6416C104.888 28.9591 103.155 29.7485 101.705 30.9329C100.256 32.1172 99.1388 33.656 98.4633 35.3992C97.7879 37.1424 97.577 39.0304 97.8513 40.879C98.1257 42.7277 98.8758 44.4739 100.029 45.9472C100.116 46.0601 100.181 46.189 100.219 46.3268C100.257 46.4645 100.267 46.6083 100.249 46.7501C100.232 46.8918 100.186 47.0286 100.115 47.1527C100.044 47.2768 99.9494 47.3858 99.8363 47.4734C99.7232 47.561 99.5938 47.6255 99.4557 47.6633C99.3176 47.7011 99.1733 47.7114 99.0312 47.6935C98.8891 47.6757 98.7519 47.6302 98.6274 47.5595C98.503 47.4888 98.3937 47.3944 98.3059 47.2816C97.7846 46.6122 97.3298 45.8939 96.9477 45.1369C96.3209 45.7303 95.8865 46.4973 95.7007 47.3391C95.515 48.1808 95.5862 49.0588 95.9054 49.8598C96.2245 50.6608 96.7769 51.3481 97.4913 51.8332C98.2057 52.3183 99.0495 52.579 99.9138 52.5815H105.019V49.3088C105.019 49.021 105.134 48.7449 105.338 48.5414C105.542 48.3379 105.819 48.2236 106.107 48.2236C106.396 48.2236 106.673 48.3379 106.877 48.5414C107.081 48.7449 107.195 49.021 107.195 49.3088V55.0068C107.195 55.2376 107.241 55.4663 107.33 55.6796C107.418 55.8929 107.548 56.0867 107.712 56.2499C107.876 56.4132 108.07 56.5427 108.284 56.631C108.498 56.7194 108.727 56.7649 108.958 56.7649C109.19 56.7649 109.419 56.7194 109.633 56.631C109.847 56.5427 110.041 56.4132 110.205 56.2499C110.369 56.0867 110.499 55.8929 110.587 55.6796C110.676 55.4663 110.721 55.2376 110.721 55.0068V53.6782C110.721 53.3904 110.836 53.1144 111.04 52.9109C111.244 52.7073 111.521 52.593 111.81 52.593H117.908C118.921 52.5925 119.902 52.238 120.679 51.5911C121.457 50.9442 121.983 50.0459 122.165 49.0524C122.348 48.0589 122.175 47.0331 121.677 46.1535C121.18 45.2738 120.389 44.596 119.442 44.2378H119.447Z" fill="#EFDFB4"/>
<path d="M124.415 48.2769C124.41 47.1373 124.106 46.0189 123.534 45.0325C122.962 44.046 122.141 43.2259 121.153 42.6534C121.849 40.0779 121.731 37.3513 120.816 34.8451C119.901 32.3388 118.233 30.1749 116.04 28.6482C113.847 27.1214 111.235 26.3061 108.561 26.3134C105.886 26.3207 103.279 27.1503 101.094 28.689C98.8576 27.1113 96.1784 26.2785 93.439 26.3094C90.6997 26.3403 88.0401 27.2334 85.8398 28.8611C83.6396 30.4888 82.0112 32.768 81.1871 35.3733C80.3629 37.9787 80.3851 40.7771 81.2505 43.3692C80.323 44.1645 79.6396 45.2048 79.279 46.3704C78.9183 47.536 78.8951 48.7794 79.2119 49.9576C79.5287 51.1358 80.1727 52.2008 81.0698 53.0301C81.9669 53.8593 83.0806 54.4191 84.2826 54.6449L93.2153 77.7547C93.303 77.9865 93.4605 78.1855 93.6661 78.3244C93.8717 78.4634 94.1155 78.5354 94.3638 78.5307C94.6142 78.5323 94.8589 78.4566 95.0645 78.3141C95.2701 78.1716 95.4265 77.9693 95.5123 77.7347L101.574 60.9099L107.391 77.7547C107.476 77.987 107.629 78.1883 107.83 78.3326C108.032 78.4768 108.272 78.5573 108.52 78.5634C108.768 78.5696 109.012 78.5013 109.22 78.3672C109.428 78.2332 109.591 78.0397 109.688 77.812L119.094 54.6564C120.589 54.3801 121.939 53.5909 122.911 52.4256C123.883 51.2603 124.415 49.7925 124.415 48.2769ZM82.1894 45.5052C82.8923 46.7954 83.8099 47.9573 84.9028 48.9412C85.0081 49.0417 85.1325 49.1202 85.2687 49.1718C85.4049 49.2235 85.5501 49.2474 85.6957 49.242C85.8414 49.2367 85.9845 49.2022 86.1165 49.1406C86.2485 49.0791 86.3668 48.9918 86.4643 48.8838C86.5618 48.7758 86.6366 48.6493 86.6842 48.512C86.7318 48.3746 86.7512 48.2291 86.7414 48.0841C86.7315 47.9391 86.6925 47.7976 86.6268 47.6679C86.561 47.5382 86.4698 47.423 86.3586 47.3291C84.7267 45.8672 83.5779 43.9461 83.0639 41.8194C82.5499 39.6927 82.6949 37.4606 83.4797 35.4178C84.2646 33.375 85.6524 31.6177 87.4598 30.378C89.2672 29.1383 91.4092 28.4745 93.6029 28.4742C95.6359 28.4707 97.6278 29.0448 99.3455 30.1292C97.687 31.7837 96.5093 33.8557 95.9379 36.1246C95.3666 38.3936 95.423 40.7746 96.101 43.0141C95.3623 43.5446 94.744 44.2242 94.2863 45.0088C93.8287 45.7934 93.5418 46.6654 93.4446 47.5679C93.3473 48.4704 93.4419 49.3832 93.7219 50.2469C94.002 51.1105 94.4614 51.9056 95.0701 52.5805H85.4828C84.6568 52.5866 83.8464 52.3557 83.1483 51.9153C82.4502 51.4749 81.8939 50.8437 81.5456 50.0967C81.1972 49.3498 81.0716 48.5187 81.1838 47.7026C81.2959 46.8865 81.641 46.1197 82.178 45.4938L82.1894 45.5052ZM117.909 52.5919H111.813C111.524 52.5919 111.247 52.7063 111.043 52.9098C110.839 53.1133 110.725 53.3893 110.725 53.6771V55.0057C110.725 55.472 110.539 55.9191 110.208 56.2488C109.878 56.5785 109.429 56.7638 108.962 56.7638C108.494 56.7638 108.046 56.5785 107.715 56.2488C107.384 55.9191 107.199 55.472 107.199 55.0057V49.3077C107.199 49.0199 107.084 48.7439 106.88 48.5403C106.676 48.3368 106.399 48.2225 106.11 48.2225C105.822 48.2225 105.545 48.3368 105.341 48.5403C105.137 48.7439 105.022 49.0199 105.022 49.3077V52.5919H99.9169C99.0526 52.5894 98.2089 52.3287 97.4945 51.8436C96.78 51.3585 96.2276 50.6712 95.9085 49.8702C95.5894 49.0692 95.5181 48.1912 95.7039 47.3494C95.8897 46.5077 96.324 45.7407 96.9509 45.1473C97.3329 45.9043 97.7878 46.6225 98.309 47.2919C98.3968 47.4047 98.5061 47.4992 98.6306 47.5699C98.755 47.6406 98.8922 47.6861 99.0344 47.7039C99.1765 47.7217 99.3207 47.7115 99.4588 47.6737C99.597 47.6359 99.7263 47.5714 99.8394 47.4838C99.9525 47.3962 100.047 47.2872 100.118 47.1631C100.189 47.039 100.235 46.9021 100.253 46.7604C100.27 46.6187 100.26 46.4749 100.222 46.3371C100.184 46.1994 100.12 46.0704 100.032 45.9576C98.536 44.061 97.7266 41.7161 97.7347 39.3033C97.7352 37.7374 98.0768 36.1903 98.7359 34.769C99.395 33.3477 100.356 32.0861 101.552 31.0715C102.748 30.0569 104.151 29.3135 105.663 28.8927C107.176 28.4719 108.762 28.3837 110.312 28.6343C111.862 28.8849 113.339 29.4682 114.641 30.344C115.942 31.2197 117.038 32.367 117.851 33.7065C118.664 35.0459 119.176 36.5456 119.351 38.1017C119.526 39.6579 119.36 41.2333 118.865 42.7192L118.813 42.8624C118.714 43.1301 118.726 43.426 118.844 43.6855C118.963 43.945 119.18 44.1473 119.448 44.2482C120.395 44.6064 121.186 45.2842 121.683 46.1639C122.181 47.0435 122.354 48.0693 122.171 49.0628C121.989 50.0562 121.463 50.9546 120.685 51.6014C119.908 52.2483 118.927 52.6029 117.914 52.6034L117.909 52.5919ZM94.3896 74.1928L87.1252 54.7623H99.2967L100.348 57.6972L94.3896 74.1928ZM108.539 74.1756L102.286 56.1711L101.775 54.7652H105.022V55.0086C105.022 56.0505 105.437 57.0497 106.176 57.7864C106.915 58.5231 107.917 58.937 108.962 58.937C110.006 58.937 111.008 58.5231 111.747 57.7864C112.486 57.0497 112.901 56.0505 112.901 55.0086V54.7652H116.249L108.539 74.1756Z" fill="#524436"/>
</svg>
